<svg width="91" height="81" viewBox="0 0 91 81" fill="none" xmlns="http://www.w3.org/2000/svg">
<path d="M84.8428 0.987549H5.44641C4.01069 0.987549 2.63377 1.55789 1.61857 2.57309C0.603358 3.5883 0.03302 4.96522 0.03302 6.40094V74.9706C0.03302 76.4063 0.603358 77.7832 1.61857 78.7984C2.63377 79.8136 4.01069 80.384 5.44641 80.384H84.8428C86.2786 80.384 87.6555 79.8136 88.6707 78.7984C89.6859 77.7832 90.2562 76.4063 90.2562 74.9706V6.40094C90.2562 4.96522 89.6859 3.5883 88.6707 2.57309C87.6555 1.55789 86.2786 0.987549 84.8428 0.987549V0.987549ZM5.44641 4.59648H84.8428C85.3214 4.59648 85.7804 4.78659 86.1188 5.12499C86.4572 5.4634 86.6473 5.92237 86.6473 6.40094V11.8143H3.64195V6.40094C3.64195 5.92237 3.83206 5.4634 4.17046 5.12499C4.50887 4.78659 4.96784 4.59648 5.44641 4.59648V4.59648ZM84.8428 76.775H5.44641C4.96784 76.775 4.50887 76.5849 4.17046 76.2465C3.83206 75.9081 3.64195 75.4492 3.64195 74.9706V15.4233H86.6473V74.9706C86.6473 75.4492 86.4572 75.9081 86.1188 76.2465C85.7804 76.5849 85.3214 76.775 84.8428 76.775ZM30.33 30.9597L18.5649 46.0992L30.33 61.2386C30.5877 61.6188 30.6908 62.0829 30.6182 62.5365C30.5457 62.99 30.3028 63.3988 29.9393 63.6795C29.5757 63.9603 29.1188 64.0918 28.6617 64.0473C28.2045 64.0028 27.7815 63.7856 27.4789 63.4401L14.8477 47.1999C14.6048 46.8844 14.4731 46.4973 14.4731 46.0992C14.4731 45.701 14.6048 45.314 14.8477 44.9984L27.4789 28.7583C27.6172 28.5544 27.7957 28.3809 28.0035 28.2487C28.2113 28.1164 28.444 28.0281 28.6872 27.9891C28.9305 27.9502 29.1791 27.9615 29.4178 28.0223C29.6565 28.0831 29.8803 28.1921 30.0752 28.3427C30.2702 28.4932 30.4323 28.6821 30.5515 28.8977C30.6707 29.1133 30.7445 29.3509 30.7684 29.5961C30.7923 29.8413 30.7657 30.0888 30.6903 30.3233C30.6149 30.5578 30.4923 30.7744 30.33 30.9597V30.9597ZM75.4416 44.9984C75.6845 45.314 75.8162 45.701 75.8162 46.0992C75.8162 46.4973 75.6845 46.8844 75.4416 47.1999C62.3231 63.6385 63.0088 64.1438 61.3848 64.1438C60.9861 64.1426 60.599 64.0093 60.2841 63.7649C59.9068 63.4724 59.6608 63.0423 59.5999 62.5688C59.539 62.0953 59.6682 61.617 59.9593 61.2386L71.7244 46.0992L59.9593 30.9597C59.7015 30.5795 59.5984 30.1154 59.671 29.6618C59.7436 29.2083 59.9864 28.7995 60.35 28.5188C60.7135 28.2381 61.1704 28.1065 61.6276 28.151C62.0848 28.1955 62.5077 28.4127 62.8103 28.7583L75.4416 44.9984ZM52.3625 30.4364L41.5357 62.9168C41.3826 63.3714 41.0551 63.7466 40.6253 63.9598C40.1955 64.173 39.6987 64.2067 39.244 64.0536C38.7894 63.9004 38.4142 63.573 38.201 63.1432C37.9878 62.7134 37.9541 62.2165 38.1072 61.7619L48.934 29.2815C49.0098 29.0564 49.1293 28.8485 49.2855 28.6695C49.4417 28.4905 49.6316 28.3441 49.8444 28.2385C50.0572 28.133 50.2887 28.0703 50.5257 28.0543C50.7627 28.0382 51.0006 28.0689 51.2257 28.1447C51.4508 28.2206 51.6588 28.34 51.8377 28.4962C52.0167 28.6524 52.1631 28.8423 52.2687 29.0551C52.3743 29.2679 52.4369 29.4994 52.453 29.7364C52.4691 29.9734 52.4383 30.2113 52.3625 30.4364V30.4364Z" fill="#151A6A"/>
</svg>
