<svg width="80" height="80" viewBox="0 0 80 80" fill="none" xmlns="http://www.w3.org/2000/svg">
<path d="M79.9098 40.1662V5.88141C79.9098 4.44569 79.3395 3.06877 78.3243 2.05356C77.309 1.03835 75.9321 0.468018 74.4964 0.468018H5.92676C4.49104 0.468018 3.11412 1.03835 2.09891 2.05356C1.0837 3.06877 0.513367 4.44569 0.513367 5.88141V40.1662H79.9098ZM40.2116 34.7528H36.6027C36.1241 34.7528 35.6651 34.5627 35.3267 34.2243C34.9883 33.8859 34.7982 33.427 34.7982 32.9484C34.7982 32.4698 34.9883 32.0108 35.3267 31.6724C35.6651 31.334 36.1241 31.1439 36.6027 31.1439H40.2116C40.6902 31.1439 41.1491 31.334 41.4875 31.6724C41.8259 32.0108 42.016 32.4698 42.016 32.9484C42.016 33.427 41.8259 33.8859 41.4875 34.2243C41.1491 34.5627 40.6902 34.7528 40.2116 34.7528ZM25.7759 23.9261C25.2973 23.9261 24.8383 23.7359 24.4999 23.3975C24.1615 23.0591 23.9714 22.6002 23.9714 22.1216C23.9714 21.643 24.1615 21.184 24.4999 20.8456C24.8383 20.5072 25.2973 20.3171 25.7759 20.3171H45.625C46.1036 20.3171 46.5625 20.5072 46.9009 20.8456C47.2393 21.184 47.4294 21.643 47.4294 22.1216C47.4294 22.6002 47.2393 23.0591 46.9009 23.3975C46.5625 23.7359 46.1036 23.9261 45.625 23.9261H25.7759ZM56.4518 34.7528H47.4294C46.9509 34.7528 46.4919 34.5627 46.1535 34.2243C45.8151 33.8859 45.625 33.427 45.625 32.9484C45.625 32.4698 45.8151 32.0108 46.1535 31.6724C46.4919 31.334 46.9509 31.1439 47.4294 31.1439H56.4518C56.9303 31.1439 57.3893 31.334 57.7277 31.6724C58.0661 32.0108 58.2562 32.4698 58.2562 32.9484C58.2562 33.427 58.0661 33.8859 57.7277 34.2243C57.3893 34.5627 56.9303 34.7528 56.4518 34.7528ZM67.2785 34.7528H63.6696C63.191 34.7528 62.7321 34.5627 62.3937 34.2243C62.0553 33.8859 61.8652 33.427 61.8652 32.9484C61.8652 32.4698 62.0553 32.0108 62.3937 31.6724C62.7321 31.334 63.191 31.1439 63.6696 31.1439H67.2785C67.7571 31.1439 68.2161 31.334 68.5545 31.6724C68.8929 32.0108 69.083 32.4698 69.083 32.9484C69.083 33.427 68.8929 33.8859 68.5545 34.2243C68.2161 34.5627 67.7571 34.7528 67.2785 34.7528ZM67.2785 23.9261H63.6696C63.191 23.9261 62.7321 23.7359 62.3937 23.3975C62.0553 23.0591 61.8652 22.6002 61.8652 22.1216C61.8652 21.643 62.0553 21.184 62.3937 20.8456C62.7321 20.5072 63.191 20.3171 63.6696 20.3171H67.2785C67.7571 20.3171 68.2161 20.5072 68.5545 20.8456C68.8929 21.184 69.083 21.643 69.083 22.1216C69.083 22.6002 68.8929 23.0591 68.5545 23.3975C68.2161 23.7359 67.7571 23.9261 67.2785 23.9261ZM58.2562 9.49034H67.2785C67.7571 9.49034 68.2161 9.68045 68.5545 10.0189C68.8929 10.3573 69.083 10.8162 69.083 11.2948C69.083 11.7734 68.8929 12.2324 68.5545 12.5708C68.2161 12.9092 67.7571 13.0993 67.2785 13.0993H58.2562C57.7777 13.0993 57.3187 12.9092 56.9803 12.5708C56.6419 12.2324 56.4518 11.7734 56.4518 11.2948C56.4518 10.8162 56.6419 10.3573 56.9803 10.0189C57.3187 9.68045 57.7777 9.49034 58.2562 9.49034ZM58.2562 22.1216C58.2562 22.6002 58.0661 23.0591 57.7277 23.3975C57.3893 23.7359 56.9303 23.9261 56.4518 23.9261H52.8428C52.3643 23.9261 51.9053 23.7359 51.5669 23.3975C51.2285 23.0591 51.0384 22.6002 51.0384 22.1216C51.0384 21.643 51.2285 21.184 51.5669 20.8456C51.9053 20.5072 52.3643 20.3171 52.8428 20.3171H56.4518C56.9303 20.3171 57.3893 20.5072 57.7277 20.8456C58.0661 21.184 58.2562 21.643 58.2562 22.1216ZM42.016 9.49034H51.0384C51.5169 9.49034 51.9759 9.68045 52.3143 10.0189C52.6527 10.3573 52.8428 10.8162 52.8428 11.2948C52.8428 11.7734 52.6527 12.2324 52.3143 12.5708C51.9759 12.9092 51.5169 13.0993 51.0384 13.0993H42.016C41.5375 13.0993 41.0785 12.9092 40.7401 12.5708C40.4017 12.2324 40.2116 11.7734 40.2116 11.2948C40.2116 10.8162 40.4017 10.3573 40.7401 10.0189C41.0785 9.68045 41.5375 9.49034 42.016 9.49034ZM31.1893 9.49034H34.7982C35.2768 9.49034 35.7357 9.68045 36.0741 10.0189C36.4125 10.3573 36.6027 10.8162 36.6027 11.2948C36.6027 11.7734 36.4125 12.2324 36.0741 12.5708C35.7357 12.9092 35.2768 13.0993 34.7982 13.0993H31.1893C30.7107 13.0993 30.2517 12.9092 29.9133 12.5708C29.5749 12.2324 29.3848 11.7734 29.3848 11.2948C29.3848 10.8162 29.5749 10.3573 29.9133 10.0189C30.2517 9.68045 30.7107 9.49034 31.1893 9.49034ZM14.9491 9.49034H23.9714C24.45 9.49034 24.909 9.68045 25.2474 10.0189C25.5858 10.3573 25.7759 10.8162 25.7759 11.2948C25.7759 11.7734 25.5858 12.2324 25.2474 12.5708C24.909 12.9092 24.45 13.0993 23.9714 13.0993H14.9491C14.4705 13.0993 14.0115 12.9092 13.6731 12.5708C13.3347 12.2324 13.1446 11.7734 13.1446 11.2948C13.1446 10.8162 13.3347 10.3573 13.6731 10.0189C14.0115 9.68045 14.4705 9.49034 14.9491 9.49034ZM13.1446 20.3171H18.558C19.0366 20.3171 19.4956 20.5072 19.834 20.8456C20.1724 21.184 20.3625 21.643 20.3625 22.1216C20.3625 22.6002 20.1724 23.0591 19.834 23.3975C19.4956 23.7359 19.0366 23.9261 18.558 23.9261H13.1446C12.666 23.9261 12.2071 23.7359 11.8687 23.3975C11.5303 23.0591 11.3402 22.6002 11.3402 22.1216C11.3402 21.643 11.5303 21.184 11.8687 20.8456C12.2071 20.5072 12.666 20.3171 13.1446 20.3171ZM13.1446 31.1439H29.3848C29.8634 31.1439 30.3223 31.334 30.6607 31.6724C30.9992 32.0108 31.1893 32.4698 31.1893 32.9484C31.1893 33.427 30.9992 33.8859 30.6607 34.2243C30.3223 34.5627 29.8634 34.7528 29.3848 34.7528H13.1446C12.666 34.7528 12.2071 34.5627 11.8687 34.2243C11.5303 33.8859 11.3402 33.427 11.3402 32.9484C11.3402 32.4698 11.5303 32.0108 11.8687 31.6724C12.2071 31.334 12.666 31.1439 13.1446 31.1439ZM56.4518 78.06C56.4518 78.5386 56.2617 78.9975 55.9233 79.3359C55.5848 79.6743 55.1259 79.8645 54.6473 79.8645H25.7759C25.2973 79.8645 24.8383 79.6743 24.4999 79.3359C24.1615 78.9975 23.9714 78.5386 23.9714 78.06C23.9714 77.5814 24.1615 77.1224 24.4999 76.784C24.8383 76.4456 25.2973 76.2555 25.7759 76.2555H27.9773L31.5862 61.8198H48.8369L52.4459 76.2555H54.6473C55.1259 76.2555 55.5848 76.4456 55.9233 76.784C56.2617 77.1224 56.4518 77.5814 56.4518 78.06ZM79.9098 43.7752V52.7975C79.9098 54.2332 79.3395 55.6101 78.3243 56.6253C77.309 57.6405 75.9321 58.2109 74.4964 58.2109H5.92676C4.49104 58.2109 3.11412 57.6405 2.09891 56.6253C1.0837 55.6101 0.513367 54.2332 0.513367 52.7975V43.7752H79.9098Z" fill="#37B44C" fill-opacity="0.61"/>
</svg>
