<svg width="531" height="317" viewBox="0 0 531 317" fill="none" xmlns="http://www.w3.org/2000/svg">
<path d="M111.807 123.496C131.745 163.735 161.273 203.95 169.183 211.482C190.44 231.864 247.187 246.521 263.917 246.987C271.138 247.185 281.125 199.239 275.793 193.654C270.462 188.069 200.403 172.829 196.647 169.961C194.045 167.921 160.667 136.17 138.5 117.316C110.932 93.8913 106.568 112.885 111.807 123.496Z" fill="#F7A9A0"/>
<path d="M260.323 186.95L242.228 244.025C242.228 244.025 182.938 228.436 167.072 213.185C151.205 197.933 118.34 143.341 111.923 125.338C105.507 107.335 109.683 93.1217 138.757 116.477C167.83 139.832 192.482 163.723 197.627 167.571C202.772 171.419 260.323 186.95 260.323 186.95Z" fill="#455A64"/>
<path d="M241.96 189.235C242.048 189.805 242.302 190.336 242.692 190.762C243.082 191.187 243.589 191.487 244.149 191.624C244.709 191.761 245.298 191.729 245.84 191.532C246.382 191.335 246.854 190.982 247.195 190.517C247.536 190.052 247.732 189.496 247.757 188.92C247.782 188.344 247.636 187.773 247.336 187.28C247.037 186.787 246.598 186.394 246.075 186.151C245.552 185.907 244.969 185.824 244.398 185.912C243.634 186.03 242.948 186.446 242.491 187.069C242.034 187.692 241.843 188.471 241.96 189.235Z" fill="#263238"/>
<path d="M227.435 185.049C227.52 185.62 227.773 186.153 228.162 186.58C228.551 187.007 229.057 187.309 229.618 187.448C230.178 187.587 230.767 187.556 231.311 187.36C231.854 187.164 232.327 186.811 232.669 186.346C233.011 185.881 233.208 185.325 233.233 184.749C233.259 184.172 233.113 183.601 232.814 183.107C232.514 182.614 232.075 182.22 231.552 181.976C231.028 181.732 230.444 181.649 229.873 181.738C229.495 181.795 229.133 181.926 228.805 182.123C228.478 182.32 228.193 182.58 227.967 182.888C227.74 183.195 227.577 183.545 227.485 183.915C227.394 184.286 227.377 184.672 227.435 185.049Z" fill="#263238"/>
<path d="M198.49 229.882C185.505 224.845 173.127 218.98 167.072 213.185C151.205 198.027 118.34 143.341 111.923 125.338C107.817 113.83 108.038 103.872 116.322 104.28L198.49 229.882Z" fill="#263238"/>
<path d="M17.2367 280.463H166.92C167.527 274.994 136.727 122.563 122.062 103.452C118.923 99.3598 108.575 98.2288 99.79 99.3248C97.4949 99.5857 95.2268 100.046 93.0117 100.701C92.9408 100.733 92.8664 100.756 92.79 100.771C90.9991 101.284 89.3128 102.109 87.8084 103.208C63.3434 122.761 16.0584 279.122 17.2367 280.463Z" fill="#455A64"/>
<path d="M109.882 137.943L116.252 125.56L124.465 134.515L122.458 143.435L114.338 144.472L109.882 137.943Z" fill="#263238"/>
<path d="M114.338 144.472L110.465 235.572L127.545 265.701L136.412 231.794L122.458 143.435L114.338 144.472Z" fill="#263238"/>
<path d="M114.105 123.904C111.772 123.811 96.115 111.591 91.3084 102.065C90.9817 101.412 92.195 94.6958 93.28 86.4522C93.91 81.45 94.4467 75.8649 94.68 70.7345C94.68 69.6734 98.2384 71.7373 98.2384 71.7373L104.83 73.5562L126.647 79.6311C126.647 79.6311 123.147 90.2883 122.867 99.2432C122.857 99.9536 122.907 100.664 123.018 101.365C123.026 101.482 123.026 101.599 123.018 101.715C123.578 105.738 117.967 124.056 114.105 123.904Z" fill="#F7A9A0"/>
<path d="M123.018 101.342C123.026 101.458 123.026 101.575 123.018 101.692C121.917 101.8 120.809 101.82 119.705 101.75C98.0167 100.584 96.2317 72.8799 96.2317 72.8799L104.795 73.5329L126.612 79.6078C126.612 79.6078 123.112 90.265 122.832 99.2199C122.833 99.9313 122.896 100.641 123.018 101.342Z" fill="#263238"/>
<path d="M89.6167 33.0027C86.3383 44.4878 93.0117 77.3807 101.283 84.5866C113.265 95.0806 132.585 95.6869 141.382 81.3451C149.91 67.458 140.472 24.7475 131.255 18.2295C117.698 8.63335 94.4467 16.0258 89.6167 33.0027Z" fill="#F7A9A0"/>
<path d="M122.167 52.1485C122.167 52.0668 122.015 52.2884 122.038 52.37C122.54 54.5738 122.762 57.1856 120.872 58.3166C120.813 58.3166 120.872 58.4682 120.872 58.4449C123.333 57.6054 123.042 54.154 122.167 52.1485Z" fill="#263238"/>
<path d="M119.763 50.2246C116.147 50.656 117.278 57.8619 120.627 57.4654C123.975 57.069 122.797 49.8515 119.763 50.2246Z" fill="#263238"/>
<path d="M135.198 50.4811C135.198 50.3878 135.385 50.5511 135.397 50.6443C135.677 52.8947 136.377 55.4133 138.512 55.8331C138.582 55.8331 138.593 55.9613 138.512 55.9613C135.992 56.008 135.105 52.6499 135.198 50.4811Z" fill="#263238"/>
<path d="M136.82 47.8343C140.32 46.9947 141.79 54.154 138.5 54.9235C135.21 55.6931 133.833 48.5339 136.82 47.8343Z" fill="#263238"/>
<path d="M116.403 47.3679C117.309 46.9445 118.189 46.4695 119.04 45.9454C120.039 45.5764 120.888 44.8877 121.455 43.9865C121.577 43.6682 121.59 43.3186 121.493 42.992C121.396 42.6653 121.194 42.3796 120.918 42.1792C120.313 41.866 119.634 41.7204 118.953 41.7573C118.272 41.7942 117.613 42.0123 117.045 42.3891C115.778 42.9764 114.773 44.0102 114.222 45.2924C114.113 45.5926 114.094 45.9179 114.168 46.2285C114.241 46.5392 114.403 46.8218 114.635 47.0419C114.866 47.262 115.156 47.41 115.47 47.4679C115.785 47.5258 116.109 47.491 116.403 47.3679Z" fill="#263238"/>
<path d="M139.037 43.7649C138.01 43.7649 137.065 43.5783 136.062 43.4734C134.995 43.5185 133.944 43.2066 133.075 42.5872C132.835 42.3451 132.684 42.0293 132.646 41.6908C132.608 41.3524 132.685 41.011 132.865 40.7216C133.303 40.1995 133.872 39.8033 134.514 39.5738C135.155 39.3443 135.847 39.2897 136.517 39.4157C137.914 39.4672 139.243 40.0318 140.25 41.0015C140.463 41.2382 140.604 41.5314 140.654 41.8459C140.705 42.1604 140.664 42.4829 140.536 42.7746C140.408 43.0663 140.198 43.3149 139.932 43.4905C139.666 43.6662 139.355 43.7615 139.037 43.7649Z" fill="#263238"/>
<path d="M123.392 73.1948C124.01 73.6262 124.663 74.2675 125.48 74.2092C126.316 74.065 127.112 73.7429 127.813 73.2647C127.828 73.2593 127.844 73.2582 127.859 73.2615C127.874 73.2648 127.888 73.2725 127.9 73.2835C127.911 73.2946 127.918 73.3086 127.922 73.3238C127.925 73.3391 127.924 73.355 127.918 73.3697C127.67 73.858 127.293 74.2699 126.829 74.5615C126.365 74.853 125.83 75.0133 125.282 75.0254C124.806 74.9775 124.356 74.7904 123.986 74.4875C123.617 74.1847 123.345 73.7796 123.205 73.323C123.147 73.2064 123.333 73.1248 123.392 73.1948Z" fill="#263238"/>
<path d="M131.908 67.7029C131.157 69.0793 130.064 70.2396 128.735 71.0726C127.999 71.5045 127.146 71.6922 126.297 71.609C124.43 71.4225 124.138 69.8017 124.243 68.3442C124.306 67.575 124.459 66.8157 124.698 66.0822C126.868 67.375 129.394 67.9427 131.908 67.7029Z" fill="white"/>
<path d="M124.698 66.1405C125.411 66.9307 126.28 67.5655 127.249 68.0049C128.219 68.4442 129.269 68.6789 130.333 68.694C131.265 68.7227 132.197 68.6166 133.098 68.3792C133.274 68.3504 133.446 68.3035 133.612 68.2393C133.763 68.2393 133.915 68.1576 134.09 68.0877C134.204 68.0449 134.302 67.9659 134.367 67.8627C134.432 67.7596 134.462 67.638 134.452 67.5163C134.445 67.4398 134.425 67.3649 134.393 67.2948V67.0966C134.172 65.3709 133.588 62.7824 133.588 62.7824C134.265 63.0039 137.695 63.9484 137.508 63.0506C135.898 55.6814 134.102 47.4961 130.94 40.5001C130.918 40.4536 130.881 40.4166 130.834 40.3961C130.787 40.3756 130.734 40.3729 130.685 40.3887C130.636 40.4045 130.595 40.4376 130.569 40.4817C130.543 40.5259 130.534 40.578 130.543 40.6284C131.803 47.7643 134.323 54.6204 135.723 61.7913C134.498 61.4375 133.23 61.2569 131.955 61.2549C131.722 61.3715 133.122 66.2454 133.203 67.0266V67.1082C130.368 67.9361 128.047 67.3997 124.943 65.9422C124.687 65.8023 124.5 65.9772 124.698 66.1405Z" fill="#263238"/>
<path d="M93.49 58.6547C101.342 57.4887 100.782 42.9954 100.782 42.9954C100.782 42.9954 113.953 38.8094 114.432 28.3737C114.432 28.3737 128.432 34.6818 137.975 29.5397C147.518 24.3977 143.738 13.344 142.268 11.0703C140.798 8.79658 135.875 14.1369 135.875 14.1369C135.875 14.1369 134.288 7.78216 132.48 7.37406C130.672 6.96596 129.353 11.1402 129.353 11.1402C129.353 11.1402 115.738 8.69164 104.013 10.7438C92.2884 12.796 88.1934 25.552 88.1934 25.552C88.1934 25.552 82.0917 27.8024 80.7034 32.548C79.315 37.2936 88.4734 59.366 93.49 58.6547Z" fill="#263238"/>
<path d="M97.6667 43.5551C108.307 43.4151 114.222 35.4747 114.28 25.2605C114.287 25.2399 114.301 25.2221 114.318 25.2095C114.336 25.1969 114.357 25.1901 114.379 25.1901C114.401 25.1901 114.422 25.1969 114.44 25.2095C114.458 25.2221 114.471 25.2399 114.478 25.2605C115.528 34.5885 108.353 46.2485 97.6317 44.0448C97.3284 43.9748 97.34 43.5551 97.6667 43.5551Z" fill="#263238"/>
<path d="M88.45 25.2955C88.4749 25.2902 88.5007 25.2931 88.5237 25.3039C88.5467 25.3146 88.5655 25.3325 88.5774 25.355C88.5893 25.3774 88.5935 25.403 88.5895 25.4281C88.5854 25.4531 88.5733 25.4761 88.555 25.4937C85.825 27.2777 82.6284 28.7701 80.96 31.7318C78.9534 35.3114 80.0967 39.4507 81.5667 42.972C83.8184 48.4172 87.82 55.3433 93.3617 57.9318C93.6884 58.0834 93.4434 58.5498 93.1284 58.4215C86.525 55.7281 81.6017 46.7032 79.7934 40.162C77.7634 32.8395 81.7884 27.884 88.45 25.2955Z" fill="#263238"/>
<path d="M126.297 29.6214C131.302 31.7202 138.138 30.7874 142.187 27.0328C147.11 22.3688 145.022 16.2473 141.872 11.3151C141.72 11.0819 142.058 10.7438 142.268 10.9653C146.2 15.128 147.495 22.1356 143.587 26.7763C139.678 31.417 131.465 32.6063 125.947 30.2743C125.492 30.1227 125.83 29.4231 126.297 29.6214Z" fill="#263238"/>
<path d="M120.347 65.196C118.535 65.2662 116.74 64.8266 115.166 63.9273C113.592 63.028 112.302 61.705 111.443 60.1091C110.585 58.5132 110.191 56.7083 110.309 54.9001C110.426 53.0918 111.048 51.3527 112.106 49.8808C113.164 48.4089 114.613 47.2633 116.29 46.5743C117.967 45.8854 119.804 45.6809 121.592 45.984C123.379 46.2872 125.046 47.0858 126.401 48.289C127.757 49.4922 128.748 51.0516 129.26 52.7898C129.983 55.2498 129.701 57.8961 128.474 60.1479C127.246 62.3996 125.175 64.0726 122.715 64.7996C121.945 65.0277 121.149 65.1608 120.347 65.196ZM119.658 47.1463C118.963 47.1801 118.274 47.2935 117.605 47.4844C115.561 48.0892 113.825 49.4498 112.75 51.2891C111.675 53.1285 111.342 55.3082 111.819 57.3844C112.295 59.4606 113.546 61.2771 115.316 62.464C117.086 63.6508 119.242 64.1187 121.345 63.7724C123.448 63.4261 125.34 62.2916 126.635 60.5999C127.931 58.9083 128.532 56.7868 128.317 54.6675C128.102 52.5482 127.087 50.5905 125.478 49.1931C123.869 47.7957 121.788 47.0638 119.658 47.1463Z" fill="#455A64"/>
<path d="M142.268 61.698C138.57 61.8379 135.07 58.2 134.288 53.1979C133.878 50.8208 134.221 48.3749 135.268 46.2019C135.692 45.2591 136.338 44.4327 137.151 43.7932C137.963 43.1537 138.919 42.72 139.935 42.5289C140.958 42.3989 141.997 42.52 142.963 42.8816C143.928 43.2433 144.791 43.8346 145.477 44.6044C147.134 46.3583 148.206 48.5826 148.545 50.9708C149.362 56.2411 146.842 61.0334 142.922 61.6397C142.706 61.6776 142.487 61.6971 142.268 61.698ZM140.612 43.7532H140.122C139.312 43.9214 138.555 44.2799 137.912 44.799C137.268 45.318 136.758 45.9828 136.423 46.7382C135.5 48.6708 135.202 50.8433 135.572 52.953C136.283 57.512 139.468 60.8235 142.7 60.3221C145.932 59.8207 147.962 55.6581 147.25 51.1224C146.96 49.0036 146.019 47.0273 144.555 45.4673C144.051 44.9248 143.441 44.4917 142.763 44.1949C142.084 43.898 141.352 43.7437 140.612 43.7416V43.7532Z" fill="#455A64"/>
<path d="M129.167 53.9791L128.198 53.1279C129.458 51.682 132.55 49.5249 135.28 51.6587L134.487 52.6731C131.99 50.7609 129.225 53.8508 129.167 53.9791Z" fill="#455A64"/>
<path d="M86.8867 63.0739L85.72 62.6658C85.9067 62.0944 87.6683 57.0573 90.3867 56.1479C93.105 55.2384 110.383 54.2356 111.118 54.189L111.2 55.4832C106.207 55.7864 92.8017 56.7192 90.795 57.3721C88.7883 58.0251 87.3533 61.698 86.8867 63.0739Z" fill="#455A64"/>
<path d="M98.4834 60.1122C98.4834 60.1122 90.6084 49.7348 85.86 52.5915C81.1117 55.4482 87.3417 70.6762 93.1167 72.5768C93.8405 72.8622 94.6141 73.0001 95.3919 72.9823C96.1698 72.9644 96.9363 72.7912 97.6461 72.4729C98.356 72.1546 98.995 71.6975 99.5255 71.1286C100.056 70.5597 100.467 69.8905 100.735 69.1604L98.4834 60.1122Z" fill="#F7A9A0"/>
<path d="M87.7617 56.9174C87.6683 56.9174 87.6567 57.034 87.7617 57.069C91.8217 58.5265 94.0617 62.1411 95.6834 65.9073C94.435 64.4848 92.79 63.7385 90.865 65.2194C90.8481 65.2392 90.8377 65.2638 90.8351 65.2898C90.8326 65.3157 90.838 65.3418 90.8507 65.3646C90.8633 65.3874 90.8827 65.4059 90.9061 65.4174C90.9295 65.4289 90.9559 65.4331 90.9817 65.4292C91.6752 65.1805 92.4287 65.1523 93.1389 65.3485C93.8491 65.5447 94.4812 65.9558 94.9483 66.5253C95.7267 67.4775 96.3959 68.514 96.9434 69.6152C97.1534 69.965 97.7834 69.7434 97.6317 69.3353V69.2537C97.4567 64.1699 93.2333 57.2089 87.7617 56.9174Z" fill="#263238"/>
<path d="M123.135 102.135L115.342 121.246L91.7284 97.1094L84.9967 104.84C84.9967 104.84 108.073 143.155 108.213 141.429L116.1 125.035L127.405 136.474L126.553 107.813L123.135 102.135Z" fill="#455A64"/>
<path d="M127.79 122.33C127.487 117.596 127.312 112.827 126.798 108.128C126.798 107.953 126.518 107.883 126.472 108.128C125.515 112.687 126.763 130.76 126.728 135.086C126.262 134.596 116.228 125.023 116.147 125.175C114.443 127.775 108.657 139.715 108.26 140.799C104.608 134.713 90.6317 112.582 86.3034 106.822C86.2792 106.791 86.2443 106.769 86.2053 106.761C86.1662 106.753 86.1256 106.76 86.0913 106.78C86.0569 106.8 86.031 106.832 86.0185 106.87C86.006 106.908 86.0077 106.949 86.0234 106.985C89.2434 113.422 107.747 143.213 108.038 143.131C111.078 137.5 113.827 131.717 116.275 125.805C117.967 127.88 128.07 138.631 128.105 137.978C128.278 132.76 128.172 127.537 127.79 122.33Z" fill="#263238"/>
<path d="M172.065 301.498L55.5033 313.029L55.13 222.723L171.692 211.179L172.065 301.498Z" fill="#37B44D"/>
<path d="M93.175 208.964L55.025 212.742L55.13 222.723L95.9517 218.677L93.175 208.964Z" fill="#37B44D"/>
<g opacity="0.1">
<path opacity="0.1" d="M172.065 301.498L55.5033 313.029L55.13 222.723L171.692 211.179L172.065 301.498Z" fill="black"/>
<path opacity="0.1" d="M93.175 208.964L55.025 212.742L55.13 222.723L95.9517 218.677L93.175 208.964Z" fill="black"/>
</g>
<path d="M171.983 301.509L59.5634 312.633L43.4867 222.07L163.315 212.019L171.983 301.509Z" fill="#EBEBEB"/>
<path d="M171.983 301.509L56.7051 312.913L39.4734 225.871L160.655 213.884L171.983 301.509Z" fill="white"/>
<path d="M171.773 301.533L54.9667 313.088L37.91 227.923L154.728 216.368L171.773 301.533Z" fill="#37B44D"/>
<path d="M72.14 116.85C32.2984 152.996 3.54004 215.26 4.47337 232.039C5.64004 254.193 45.82 292.111 71.9884 303.083C78.6034 305.858 104.2 251.709 94.5167 248.888C84.2967 245.914 60.6834 224.507 59.5167 223.527C57.0667 221.452 76.1067 174.077 84.075 145.324C93 112.85 88.905 101.645 72.14 116.85Z" fill="#F7A9A0"/>
<path d="M57.1484 294.805C82.5 313.088 116.94 317.052 122.878 316.446C127.953 315.944 130.555 315.641 130.555 315.641C139.667 314.93 142.933 310.616 142.933 310.616C142.933 310.616 153.713 312.878 156.163 306.605C158.94 299.609 143.26 297.755 135.257 291.447C116.905 277.093 94.8317 251.558 89.955 246.894L57.1484 294.805Z" fill="#F7A9A0"/>
<path d="M105.448 289.954C110.932 294.07 116.217 298.256 122.225 301.614C128.828 305.287 135.793 307.724 142.828 310.383C142.866 310.403 142.895 310.436 142.912 310.475C142.928 310.515 142.93 310.559 142.918 310.6C142.906 310.641 142.88 310.677 142.844 310.701C142.809 310.725 142.766 310.736 142.723 310.732C128.553 307.525 115.533 300.5 105.075 290.421C104.83 290.234 105.168 289.756 105.448 289.954Z" fill="#263238"/>
<path d="M95.17 299.772C100.723 303.48 110.535 309.939 130.613 315.431C130.683 315.431 130.672 315.559 130.613 315.548C117.507 313.908 105.115 308.66 94.82 300.39C94.4817 300.087 94.7967 299.562 95.17 299.772Z" fill="#263238"/>
<path d="M114.233 272.802C112.588 269.981 114.058 269.094 119.448 271.217C124.838 273.339 144.427 286.375 148.382 279.122C152.337 271.87 124.5 253.995 115.167 251.15C105.833 248.305 89.9317 246.94 89.9317 246.94C94.68 251.523 105.075 263.707 114.233 272.802Z" fill="#F7A9A0"/>
<path d="M58.0584 298.874L89.8034 245.623C89.8034 245.623 60.1 224.798 59.96 222.723C59.82 220.647 80.8317 163.257 87.1784 135.016C93.525 106.776 90.3867 93.3083 62.5734 124.79C34.76 156.272 -0.904958 209.244 0.985042 231.946C2.87504 254.648 58.0584 298.874 58.0584 298.874Z" fill="#455A64"/>
<path d="M81.905 161.974C80.7384 163.991 79.5134 165.973 78.475 168.049C78.125 168.725 77.7867 169.401 77.4484 170.078C77.705 169.262 77.9734 168.457 78.2417 167.641C79.8634 162.522 81.4384 157.38 82.815 152.18C82.8259 152.15 82.8246 152.118 82.8115 152.089C82.7983 152.061 82.7744 152.039 82.7451 152.028C82.7157 152.017 82.6831 152.019 82.6547 152.032C82.6263 152.045 82.6042 152.069 82.5934 152.098C78.93 160.913 75.8967 169.996 72.8867 179.056C69.8767 188.116 67.0534 197.362 64.3 206.574C62.7834 211.727 61.22 216.904 60.03 222.14C60.0367 222.157 60.0486 222.173 60.0642 222.184C60.0799 222.195 60.0985 222.2 60.1175 222.2C60.1366 222.2 60.1552 222.195 60.1708 222.184C60.1864 222.173 60.1984 222.157 60.205 222.14C61.955 217.651 63.4367 213.045 64.9534 208.474C66.47 203.903 68.01 199.344 69.4917 194.774C71.825 187.474 74.1584 180.171 76.4917 172.864C77.4894 171.495 78.3417 170.026 79.035 168.48C80.12 166.358 80.9834 164.143 81.94 161.974H81.905Z" fill="#263238"/>
<path d="M52.4233 285.5C52.2439 286.048 52.2313 286.637 52.3869 287.193C52.5425 287.748 52.8595 288.245 53.2977 288.62C53.7359 288.995 54.2756 289.232 54.8485 289.301C55.4214 289.369 56.0019 289.266 56.5163 289.005C57.0308 288.744 57.4562 288.336 57.7387 287.833C58.0212 287.331 58.1481 286.755 58.1034 286.18C58.0586 285.605 57.8442 285.057 57.4873 284.603C57.1304 284.15 56.647 283.813 56.0983 283.635C55.3634 283.399 54.565 283.462 53.8768 283.812C53.1886 284.161 52.6662 284.768 52.4233 285.5Z" fill="#263238"/>
<path d="M41.3284 275.251C41.1511 275.799 41.1406 276.388 41.2981 276.943C41.4556 277.497 41.774 277.992 42.2131 278.366C42.6522 278.74 43.1924 278.975 43.7652 279.042C44.338 279.109 44.9178 279.004 45.4313 278.742C45.9449 278.48 46.3691 278.071 46.6503 277.568C46.9315 277.065 47.0572 276.49 47.0114 275.915C46.9656 275.34 46.7504 274.792 46.393 274.34C46.0355 273.888 45.552 273.551 45.0034 273.374C44.6387 273.256 44.2544 273.21 43.8723 273.241C43.4902 273.271 43.1178 273.377 42.7765 273.551C42.4352 273.725 42.1316 273.965 41.8831 274.257C41.6346 274.549 41.4461 274.886 41.3284 275.251Z" fill="#263238"/>
<path d="M21.3784 264.745C25.0534 267.87 28.5067 271.228 31.8784 274.61C33.5817 276.312 35.2733 278.014 36.9417 279.74C38.61 281.466 40.255 283.238 41.9 284.999C38.1011 282.064 34.5144 278.865 31.1667 275.426C27.7106 272.048 24.4429 268.482 21.3784 264.745Z" fill="#263238"/>
<path d="M427.833 24.386C430.33 16.3639 441.25 -1.26599 458.878 4.03931C483.973 11.6183 483.017 61.3599 494.333 78.022C514.82 108.105 513 135.786 493.587 138.409C471.875 141.336 453.36 116.605 458.808 67.3764C462.215 36.594 454.807 22.1123 448.577 22.4504C442.347 22.7886 438.217 30.216 438.217 30.216L427.833 24.386Z" fill="#263238"/>
<path d="M428.918 21.3661C430.547 17.6731 432.619 14.1922 435.09 11.0003C437.573 7.71263 440.716 4.98013 444.318 2.97824C448.029 0.943592 452.286 0.127716 456.487 0.646237C460.677 1.15888 464.68 2.67925 468.153 5.07704C471.503 7.5436 474.287 10.6959 476.32 14.3234C478.325 17.8846 479.914 21.6638 481.057 25.587C483.19 33.3547 484.442 41.3375 484.79 49.385C483.574 41.4868 481.765 33.6914 479.377 26.065C478.116 22.3438 476.478 18.7611 474.488 15.3728C472.55 12.0291 469.931 9.12929 466.8 6.86102C463.65 4.66231 460.024 3.2399 456.218 2.71006C452.427 2.152 448.555 2.76637 445.123 4.47072C441.629 6.24206 438.511 8.67327 435.942 11.63C434.603 13.11 433.353 14.6674 432.197 16.294C431.046 17.9652 429.953 19.6559 428.918 21.3661Z" fill="#263238"/>
<path d="M460.243 50.3179C460.045 55.2384 459.298 60.1123 458.75 64.9862C458.202 69.86 457.513 74.7106 457.047 79.5728C456.58 84.435 456.277 89.3089 456.312 94.1711C456.259 99.0091 456.685 103.84 457.583 108.595C458.406 113.308 460.116 117.823 462.623 121.899C465.281 125.884 468.618 129.373 472.482 132.206C476.349 135.084 480.842 137.006 485.595 137.815C487.983 138.231 490.414 138.333 492.828 138.118C494.038 138.005 495.238 137.81 496.422 137.535C497.639 137.291 498.817 136.879 499.922 136.31C497.776 137.578 495.394 138.396 492.922 138.712C490.456 139.103 487.95 139.174 485.467 138.922C482.97 138.633 480.517 138.042 478.163 137.162C475.814 136.251 473.575 135.078 471.49 133.664C469.396 132.252 467.443 130.644 465.657 128.86L464.362 127.495L463.113 126.085C462.267 125.132 461.488 124.123 460.78 123.065C458.078 118.793 456.221 114.043 455.308 109.073C453.442 99.1966 454.013 89.169 455.25 79.4212C455.868 74.524 456.72 69.6735 457.583 64.8462C458.447 60.019 459.543 55.1801 460.243 50.3179Z" fill="#263238"/>
<path d="M426.293 24.386C426.223 22.054 427.892 19.104 429.385 18.6959C430.878 18.2878 441.938 23.0334 442.895 25.8785C443.852 28.7235 438.917 31.2188 438.917 31.2188L426.293 24.386Z" fill="#455A64"/>
<path d="M434.833 126.178C428.253 140.473 379.347 207.67 355.068 209.5C329.658 211.424 268.735 169.926 262.902 166.463C246.883 156.995 291.555 113.294 299.278 120.989C312.182 133.967 343.04 158.406 350.612 156.762C366.478 153.264 399.507 125.56 422.945 111.125C436.992 102.508 442.102 110.355 434.833 126.178Z" fill="#AD6359"/>
<path d="M266.693 168.69C263.94 166.86 241.703 154.512 233.362 142.618C228.952 136.322 218.767 117.666 222.267 114.448C225.463 111.556 229.512 115.999 229.512 115.999C229.512 115.999 225.09 107.592 229.582 103.627C234.073 99.663 240.525 107.51 240.525 107.51C240.525 107.51 236.617 98.5436 241.377 94.9174C246.137 91.2911 251.293 100.246 251.293 100.246C251.293 100.246 247.338 92.2239 252.518 90.918C258.76 89.2973 264.383 104.91 270.427 110.927C271.792 112.291 300.212 136.579 300.212 136.579L266.693 168.69Z" fill="#AD6359"/>
<path d="M251.667 100.246C255.832 111.719 259.635 116.022 269.167 123.391C269.353 123.531 269.167 123.846 268.968 123.706C259.017 117.34 253.463 112.629 251.13 100.386C250.967 99.8145 251.445 99.6979 251.667 100.246Z" fill="#263238"/>
<path d="M240.875 107.452C246.23 118.995 250.325 123.694 259.705 132.148C259.833 132.264 259.647 132.498 259.507 132.393C249.602 124.872 244.177 120.056 240.327 107.813C240.152 107.265 240.63 106.927 240.875 107.452Z" fill="#263238"/>
<path d="M229.978 116.395C235.975 127.192 240.233 132.544 250.395 139.575C250.446 139.606 250.483 139.656 250.497 139.714C250.511 139.772 250.502 139.833 250.471 139.884C250.44 139.935 250.39 139.972 250.332 139.986C250.274 140 250.213 139.991 250.162 139.96C239.102 133.792 233.735 127.134 229.663 116.64C229.395 115.894 229.605 115.707 229.978 116.395Z" fill="#263238"/>
<path d="M309.837 133.046C309.837 133.046 303.537 119.112 299.407 113.597C295.277 108.082 272.363 93.2034 268.863 97.9723C264.348 104.117 275.863 115.322 282.257 120.068C282.257 120.068 271.757 134.293 278.337 144.123C284.917 153.952 309.837 133.046 309.837 133.046Z" fill="#AD6359"/>
<path d="M268.175 100.059C268.105 108.641 276.867 114.343 282.7 119.403C282.793 119.473 282.867 119.564 282.915 119.669C282.964 119.774 282.986 119.89 282.979 120.005C282.972 120.121 282.937 120.233 282.876 120.331C282.815 120.43 282.73 120.512 282.63 120.569C278.652 126.831 274.848 136.812 277.858 144.041C277.88 144.083 277.884 144.131 277.87 144.176C277.856 144.221 277.824 144.258 277.783 144.28C277.741 144.302 277.692 144.306 277.647 144.292C277.602 144.277 277.565 144.246 277.543 144.204C273.262 136.893 276.19 126.784 281.043 120.208C274.977 115.112 266.437 109.014 268.14 100.071C268.105 100.013 268.175 100.013 268.175 100.059Z" fill="#263238"/>
<path d="M434.168 130.236C426.55 145.394 382.147 210.118 358.16 211.144C334.173 212.17 283.937 191.719 283.937 191.719L321.153 135.063C321.153 135.063 346.925 153.649 350.973 153.789C355.022 153.929 409.167 118.214 421.767 110.355C434.367 102.496 446.5 105.563 434.168 130.236Z" fill="#37B44D"/>
<path d="M317.922 192.138C317.742 190.414 317.785 188.674 318.05 186.961C318.265 185.243 318.696 183.558 319.333 181.948C319.513 183.672 319.47 185.412 319.205 187.125C318.987 188.843 318.556 190.527 317.922 192.138Z" fill="white"/>
<path d="M392.017 180.793C391.843 179.069 391.886 177.33 392.145 175.616C392.359 173.896 392.794 172.211 393.44 170.602C393.734 174.063 393.248 177.545 392.017 180.793Z" fill="white"/>
<path d="M396.123 137.686C394.398 137.862 392.657 137.815 390.943 137.546C389.222 137.34 387.536 136.909 385.927 136.264C387.652 136.09 389.392 136.133 391.107 136.392C392.827 136.607 394.514 137.042 396.123 137.686Z" fill="white"/>
<path d="M336.402 157.24C334.68 157.41 332.943 157.363 331.233 157.1C329.512 156.896 327.825 156.465 326.217 155.818C327.938 155.644 329.674 155.687 331.385 155.946C333.106 156.159 334.792 156.594 336.402 157.24Z" fill="white"/>
<path d="M345.117 209.873C345.049 209.968 344.975 210.057 344.895 210.141H344.592L345.117 209.873Z" fill="white"/>
<path d="M303 171.792C305.228 169.144 308.018 167.025 311.167 165.589C310.071 166.932 308.808 168.131 307.41 169.157C306.059 170.22 304.577 171.106 303 171.792Z" fill="white"/>
<path d="M365.102 158.919C366.201 157.578 367.463 156.38 368.858 155.351C370.227 154.288 371.724 153.403 373.315 152.716C372.222 154.062 370.959 155.261 369.558 156.284C368.19 157.347 366.693 158.232 365.102 158.919Z" fill="white"/>
<path d="M344.498 176.689C347.162 178.902 349.285 181.693 350.705 184.851C348.048 182.632 345.926 179.842 344.498 176.689Z" fill="white"/>
<path d="M403.462 150.116C406.115 152.335 408.233 155.125 409.657 158.278C408.314 157.189 407.117 155.931 406.098 154.535C405.035 153.18 404.149 151.695 403.462 150.116Z" fill="white"/>
<path d="M329.215 144.262C324.548 152.739 320.01 161.298 314.947 169.553C310.053 177.797 304.726 185.776 298.987 193.456C298.961 193.48 298.927 193.495 298.892 193.499C298.857 193.502 298.821 193.494 298.791 193.476C298.761 193.457 298.737 193.429 298.724 193.396C298.711 193.363 298.709 193.327 298.718 193.293C303.198 184.839 308.32 176.677 313.302 168.515C318.283 160.353 323.673 152.261 328.678 144.029C328.877 143.703 329.39 143.936 329.215 144.262Z" fill="#263238"/>
<path d="M434.168 130.235C426.55 145.393 382.147 210.118 358.16 211.144C352.327 211.389 344.965 210.375 337.16 208.684C355.827 188.757 407.942 132.556 432.08 106.542C439.395 106.099 443 112.722 434.168 130.235Z" fill="#263238"/>
<path d="M389.917 280.463H530.698C530.698 280.463 475.958 141.954 446.803 114.086C438.882 106.519 419.305 107.09 409.715 119.858C401.852 130.352 380.023 172.025 379.032 187.031C378.04 202.038 389.812 216.834 389.812 216.834L389.917 280.463Z" fill="#37B44D"/>
<path d="M407.907 228.564C407.733 226.844 407.776 225.109 408.035 223.399C408.249 221.679 408.684 219.994 409.33 218.385C409.506 220.106 409.459 221.842 409.19 223.55C408.975 225.269 408.544 226.954 407.907 228.564Z" fill="white"/>
<path d="M504.647 254.636C504.488 252.898 504.551 251.146 504.833 249.424C505.047 247.704 505.482 246.019 506.128 244.41C506.304 246.135 506.257 247.875 505.988 249.587C505.757 251.32 505.306 253.017 504.647 254.636Z" fill="white"/>
<path d="M443.91 277.408C443.736 275.688 443.779 273.952 444.038 272.243C444.252 270.523 444.687 268.837 445.333 267.229C445.509 268.949 445.462 270.686 445.193 272.394C444.978 274.113 444.547 275.797 443.91 277.408Z" fill="white"/>
<path d="M429.91 172.864C429.74 171.144 429.787 169.408 430.05 167.699C430.254 165.978 430.685 164.292 431.333 162.685C431.642 166.142 431.155 169.624 429.91 172.864Z" fill="white"/>
<path d="M467.325 214.969C467.165 213.239 467.224 211.495 467.5 209.78C467.71 208.06 468.141 206.375 468.783 204.766C469.093 208.227 468.606 211.713 467.36 214.957L467.325 214.969Z" fill="white"/>
<path d="M392.017 180.793C391.843 179.069 391.886 177.33 392.145 175.616C392.359 173.896 392.794 172.211 393.44 170.602C393.734 174.063 393.248 177.545 392.017 180.793Z" fill="white"/>
<path d="M441.53 222.186C438.068 222.492 434.582 222.009 431.333 220.775C433.058 220.596 434.799 220.639 436.513 220.904C438.233 221.12 439.918 221.551 441.53 222.186Z" fill="white"/>
<path d="M483.997 181.948C482.271 182.121 480.531 182.078 478.817 181.819C477.096 181.606 475.409 181.171 473.8 180.525C477.263 180.231 480.747 180.717 483.997 181.948Z" fill="white"/>
<path d="M408.222 269.514C406.5 269.684 404.763 269.637 403.053 269.374C401.332 269.17 399.645 268.739 398.037 268.092C399.758 267.918 401.494 267.961 403.205 268.22C404.926 268.433 406.612 268.868 408.222 269.514Z" fill="white"/>
<path d="M487.217 234.651C485.492 234.83 483.751 234.787 482.037 234.523C480.317 234.306 478.632 233.875 477.02 233.24C478.745 233.06 480.486 233.103 482.2 233.368C483.919 233.585 485.605 234.016 487.217 234.651Z" fill="white"/>
<path d="M420.565 253.773C421.664 252.436 422.926 251.241 424.322 250.217C425.687 249.15 427.185 248.264 428.778 247.582C426.553 250.23 423.763 252.345 420.612 253.773H420.565Z" fill="white"/>
<path d="M473.8 263.941C474.893 262.595 476.156 261.395 477.557 260.373C478.925 259.31 480.422 258.424 482.013 257.738C479.793 260.393 477.001 262.514 473.847 263.941H473.8Z" fill="white"/>
<path d="M487.893 214.164C488.993 212.827 490.255 211.632 491.65 210.608C493.015 209.541 494.513 208.655 496.107 207.973C495.016 209.318 493.753 210.514 492.35 211.529C490.985 212.596 489.487 213.482 487.893 214.164Z" fill="white"/>
<path d="M403.835 196.278C404.934 194.937 406.196 193.738 407.592 192.71C408.96 191.647 410.457 190.761 412.048 190.075C410.955 191.421 409.693 192.62 408.292 193.643C406.924 194.706 405.426 195.591 403.835 196.278Z" fill="white"/>
<path d="M458.272 161.974C459.371 160.633 460.633 159.435 462.028 158.406C463.397 157.343 464.894 156.457 466.485 155.771C465.392 157.117 464.129 158.316 462.728 159.339C461.36 160.402 459.863 161.287 458.272 161.974Z" fill="white"/>
<path d="M393.545 237.251C392.464 238.567 391.221 239.743 389.847 240.749V239.326C390.995 238.493 392.236 237.797 393.545 237.251Z" fill="white"/>
<path d="M430.54 140.077C431.639 138.736 432.901 137.537 434.297 136.509C435.665 135.445 437.162 134.56 438.753 133.873C436.533 136.529 433.741 138.649 430.587 140.077H430.54Z" fill="white"/>
<path d="M384.118 203.379C385.46 204.477 386.659 205.738 387.688 207.133C388.752 208.501 389.638 209.997 390.325 211.587C387.668 209.368 385.546 206.578 384.118 203.425V203.379Z" fill="white"/>
<path d="M403.462 150.116C406.115 152.335 408.233 155.125 409.657 158.278C408.314 157.189 407.117 155.931 406.098 154.535C405.035 153.18 404.149 151.695 403.462 150.116Z" fill="white"/>
<path d="M452.333 236.248C454.983 238.472 457.1 241.261 458.528 244.41C457.208 243.311 456.032 242.05 455.028 240.656C453.943 239.309 453.038 237.827 452.333 236.248Z" fill="white"/>
<path d="M502.967 270.074C504.308 271.172 505.507 272.434 506.537 273.828C507.6 275.196 508.486 276.692 509.173 278.283C507.824 277.193 506.623 275.931 505.603 274.528C504.537 273.162 503.651 271.665 502.967 270.074Z" fill="white"/>
<path d="M451.342 124.965C453.995 127.185 456.113 129.975 457.537 133.127C454.883 130.908 452.765 128.117 451.342 124.965Z" fill="white"/>
<path d="M442.253 190.611C443.6 191.703 444.8 192.965 445.823 194.365C446.893 195.729 447.78 197.226 448.46 198.82C445.803 196.6 443.681 193.81 442.253 190.658V190.611Z" fill="white"/>
<path d="M437.447 115.427C436.677 117.514 424.613 130.096 414.895 128.358C411.722 127.787 414.055 110.355 414.055 110.355L413.938 109.026L412.247 90.4632L435.218 79.6078L438.52 78.2086C438.52 78.2086 438.648 83.3156 438.742 89.682C438.742 89.9852 438.742 90.2767 438.742 90.5915C438.742 90.9063 438.742 91.2911 438.742 91.6292C438.742 92.5737 438.742 93.5531 438.742 94.5209C438.742 95.2555 438.742 95.9667 438.742 96.748V99.08C438.693 104.553 438.26 110.015 437.447 115.427Z" fill="#AD6359"/>
<path d="M438.742 89.682C436.261 94.5133 432.757 98.7465 428.474 102.087C424.191 105.428 419.23 107.796 413.938 109.026L412.247 90.4632L435.218 79.6078L438.52 78.2086C438.52 78.2086 438.648 83.3156 438.742 89.682Z" fill="#263238"/>
<path d="M388.61 63.1089C386.02 95.7569 405.27 100.969 412.317 101.517C418.698 102.018 440.527 102.916 446.477 70.7345C452.427 38.5529 438.077 27.0445 423.528 25.1206C408.98 23.1967 391.212 30.4842 388.61 63.1089Z" fill="#AD6359"/>
<path d="M394.117 56.1711C394.863 56.065 395.603 55.9171 396.333 55.7281C397.136 55.6843 397.9 55.3722 398.503 54.8419C398.66 54.638 398.746 54.3879 398.746 54.1306C398.746 53.8733 398.66 53.6233 398.503 53.4194C398.136 53.061 397.679 52.8071 397.181 52.6841C396.683 52.5611 396.16 52.5734 395.668 52.7198C394.622 52.8677 393.667 53.3947 392.985 54.2006C392.84 54.3939 392.754 54.6256 392.739 54.8671C392.724 55.1085 392.78 55.349 392.901 55.5588C393.021 55.7686 393.201 55.9384 393.417 56.0473C393.633 56.1561 393.876 56.1992 394.117 56.1711Z" fill="#263238"/>
<path d="M415.84 56.6376C415.082 56.5443 414.382 56.3227 413.635 56.1595C412.833 56.0941 412.074 55.7662 411.477 55.2267C411.32 55.0228 411.235 54.7727 411.235 54.5154C411.235 54.2581 411.32 54.0081 411.477 53.8042C411.852 53.4517 412.316 53.2062 412.818 53.0934C413.321 52.9807 413.845 53.0046 414.335 53.1629C415.376 53.3195 416.321 53.8603 416.983 54.6787C417.121 54.874 417.199 55.1047 417.209 55.3433C417.219 55.5818 417.161 55.8183 417.04 56.0245C416.92 56.2308 416.743 56.3982 416.53 56.5068C416.317 56.6155 416.078 56.6609 415.84 56.6376Z" fill="#263238"/>
<path d="M410.73 64.8695C410.73 64.7762 410.905 64.9744 410.893 65.0677C410.753 67.2948 410.963 69.86 412.958 70.6645C413.017 70.6645 412.958 70.8045 412.958 70.7928C410.485 70.3614 410.24 66.945 410.73 64.8695Z" fill="#263238"/>
<path d="M412.795 62.6075C416.388 62.4442 416.435 69.6035 413.11 69.7901C409.785 69.9766 409.785 62.7357 412.795 62.6075Z" fill="#263238"/>
<path d="M414.207 62.9806C414.848 63.377 415.467 64.1466 416.225 64.1466C416.983 64.1466 417.753 63.4703 418.325 62.7474C418.325 62.6774 418.442 62.7474 418.453 62.829C418.453 64.2049 417.952 65.6274 416.482 65.8373C415.012 66.0472 414.148 64.8229 413.798 63.4353C413.74 63.1905 413.962 62.864 414.207 62.9806Z" fill="#263238"/>
<path d="M398.352 64.3682C398.352 64.2865 398.188 64.4848 398.188 64.578C398.293 66.8051 398.037 69.3703 396.03 70.1399C395.96 70.1399 395.972 70.2681 396.03 70.2565C398.503 69.86 398.807 66.467 398.352 64.3682Z" fill="#263238"/>
<path d="M396.333 62.0712C392.74 61.8496 392.565 69.0672 395.89 69.2537C399.215 69.4403 399.343 62.2577 396.333 62.0712Z" fill="#263238"/>
<path d="M394.817 62.5142C394.245 62.8757 393.65 63.5519 392.985 63.5869C392.32 63.6219 391.632 62.8174 391.153 62.0595C391.095 61.9895 391.037 62.0595 391.037 62.1411C390.967 63.517 391.387 64.9511 392.693 65.2543C394 65.5575 394.805 64.3681 395.167 63.0039C395.237 62.7591 395.05 62.3626 394.817 62.5142Z" fill="#263238"/>
<path d="M410.893 82.4994C410.392 83.0474 409.89 83.7937 409.085 83.8986C408.259 83.9244 407.436 83.7774 406.67 83.4672C406.655 83.4631 406.639 83.4636 406.623 83.4686C406.608 83.4735 406.595 83.4828 406.585 83.4951C406.575 83.5075 406.569 83.5224 406.568 83.5382C406.566 83.5539 406.569 83.5698 406.577 83.5838C406.917 84.0029 407.365 84.3226 407.872 84.5093C408.379 84.696 408.927 84.7428 409.458 84.6449C409.911 84.5091 410.312 84.239 410.608 83.8705C410.904 83.5019 411.081 83.0523 411.115 82.581C411.138 82.4528 410.963 82.4178 410.893 82.4994Z" fill="#263238"/>
<path d="M401.618 74.3841C401.618 74.3841 401.14 77.7188 401.128 79.2813C401.128 79.4328 401.513 79.5028 402.038 79.5378C402.038 79.5378 402.038 79.5378 402.108 79.5378C403.453 79.7933 404.842 79.6726 406.123 79.1891C407.403 78.7056 408.525 77.878 409.365 76.7977C409.382 76.7667 409.388 76.7311 409.383 76.6962C409.378 76.6613 409.362 76.6289 409.337 76.6039C409.312 76.579 409.28 76.5628 409.245 76.5578C409.21 76.5528 409.174 76.5592 409.143 76.5761C407.13 77.9322 404.732 78.6029 402.307 78.4884C402.202 78.057 403.322 72.8216 403.065 72.7983C401.846 72.9074 400.646 73.1739 399.495 73.5912C400.3 66.5952 402.202 59.8674 402.89 52.9297C402.904 52.8755 402.896 52.8181 402.867 52.77C402.839 52.7219 402.792 52.6871 402.738 52.6731C402.684 52.6592 402.627 52.6674 402.579 52.6958C402.53 52.7242 402.496 52.7706 402.482 52.8247C399.985 59.8207 398.888 67.7612 397.885 74.9787C397.745 75.8182 401 74.6523 401.618 74.3841Z" fill="#263238"/>
<path d="M402.377 79.188C403.319 80.4433 404.568 81.4351 406.005 82.068C406.794 82.3875 407.663 82.4527 408.49 82.2546C410.31 81.7998 410.368 80.1441 410.053 78.7566C409.877 78.0022 409.615 77.2705 409.272 76.5761C407.312 78.1608 404.895 79.0762 402.377 79.188Z" fill="#263238"/>
<path d="M406.005 82.0914C406.794 82.4108 407.663 82.476 408.49 82.2779C410.31 81.8232 410.368 80.1674 410.053 78.7799C408.117 78.9198 406.192 80.2141 406.005 82.0914Z" fill="#EB9481"/>
<path d="M445.03 73.9877C442.942 72.9643 441.155 71.4159 439.846 69.4944C438.537 67.5729 437.751 65.3443 437.563 63.0273C431.877 60.5118 426.967 56.5223 423.342 51.4722C423.552 52.1485 425.103 56.999 425.978 59.4476C405.328 55.4949 399.005 39.6256 399.005 39.6256C392.273 46.2835 390.92 50.551 389.94 52.6732C389.94 52.6732 389.847 40.0104 396.403 31.5569C404.43 21.2028 431.403 18.521 443.782 32.1283C457.14 46.8315 445.03 73.9877 445.03 73.9877Z" fill="#263238"/>
<path d="M410.333 55.9613C413.645 57.7908 417.212 59.1152 420.915 59.8907C415.095 58.2902 409.841 55.0908 405.748 50.656C404.011 48.7693 402.521 46.6692 401.315 44.4062C399.902 41.9828 398.982 39.304 398.608 36.524C398.608 36.4808 398.591 36.4392 398.561 36.4086C398.53 36.378 398.488 36.3608 398.445 36.3608C398.402 36.3608 398.36 36.378 398.33 36.4086C398.299 36.4392 398.282 36.4808 398.282 36.524C398.358 39.3156 398.902 42.0746 399.892 44.686C400.975 47.2337 402.522 49.5584 404.453 51.5421C406.179 53.2929 408.143 54.7923 410.287 55.9962" fill="#263238"/>
<path d="M441.098 72.8333C441.098 72.8333 448.168 62.5608 452.765 65.0794C457.362 67.5979 452.147 82.4411 446.722 84.505C446.043 84.8172 445.308 84.9891 444.561 85.0102C443.814 85.0313 443.071 84.9013 442.376 84.6279C441.68 84.3545 441.047 83.9434 440.515 83.4194C439.983 82.8953 439.562 82.2691 439.278 81.5783L441.098 72.8333Z" fill="#AD6359"/>
<path d="M451.167 69.3003C451.26 69.3003 451.272 69.4052 451.167 69.4402C447.363 71.0143 445.333 74.5706 443.992 78.2435C445.158 76.821 446.663 76.0398 448.565 77.3807C448.658 77.4506 448.565 77.6022 448.46 77.5789C447.792 77.3638 447.073 77.3605 446.403 77.5692C445.732 77.7779 445.143 78.1885 444.715 78.7449C444.023 79.6974 443.429 80.717 442.942 81.7882C442.767 82.138 442.148 81.9514 442.277 81.5666V81.4734C442.253 76.6578 445.987 69.86 451.167 69.3003Z" fill="#263238"/>
<path d="M442.23 83.7588C442.23 84.22 442.367 84.6709 442.623 85.0543C442.88 85.4378 443.244 85.7367 443.67 85.9132C444.097 86.0897 444.566 86.1359 445.019 86.046C445.471 85.956 445.887 85.7339 446.213 85.4077C446.54 85.0816 446.762 84.6661 446.852 84.2137C446.942 83.7613 446.896 83.2925 446.719 82.8663C446.542 82.4402 446.243 82.076 445.86 81.8198C445.476 81.5635 445.025 81.4268 444.563 81.4268C443.949 81.4416 443.364 81.692 442.93 82.1262C442.495 82.5603 442.245 83.1449 442.23 83.7588Z" fill="white"/>
<path d="M403.438 122.085C403.438 122.085 396.765 141.044 408.84 142.385C420.915 143.726 452.45 120.418 452.45 120.418C452.45 120.418 443.7 106.263 429.723 107.778C418.115 109.026 403.438 122.085 403.438 122.085Z" fill="#AD6359"/>
<path d="M460.5 144.286C460.5 167.699 447.037 237.904 434.11 247.36C408.245 266.284 347.59 264.978 330.86 265.27C323.638 265.387 314.153 217.336 319.532 211.809C324.91 206.282 398.865 204.23 402.598 201.396C405.223 199.426 426.083 165.25 438.158 143.283C454.445 113.585 460.5 132.486 460.5 144.286Z" fill="#AD6359"/>
<path d="M332.365 209.244C332.365 209.244 310.537 206.83 296.198 205.932C288.183 205.419 274.382 205.781 268.327 208.089C259.273 211.587 223.632 231.841 228.357 240.586C232.638 248.491 243.523 239.746 243.523 239.746C243.523 239.746 230.69 248.188 237.387 254.741C244.083 261.294 257.22 248.561 257.22 248.561C257.22 248.561 242.998 256.583 250.78 262.903C257.535 268.371 274.195 255.289 274.195 255.289C274.195 255.289 258.352 262.087 264.722 268.371C271.722 275.367 299.197 258.834 299.197 258.834C317.058 264.78 328.585 265.935 342.258 265.072C344.732 264.92 332.365 209.244 332.365 209.244Z" fill="#AD6359"/>
<path d="M253.207 251.441L256.438 248.596C258.496 246.7 260.662 244.925 262.925 243.279C265.165 241.705 267.463 240.248 269.808 238.86C272.153 237.473 274.93 236.155 277.368 234.616C277.387 234.602 277.408 234.592 277.43 234.587C277.453 234.581 277.476 234.581 277.499 234.585C277.522 234.59 277.543 234.599 277.562 234.613C277.581 234.626 277.597 234.643 277.609 234.663C277.62 234.683 277.628 234.706 277.63 234.729C277.632 234.752 277.63 234.775 277.623 234.797C277.615 234.819 277.603 234.839 277.588 234.856C277.572 234.873 277.553 234.887 277.532 234.896C275.109 236.388 272.772 238.015 270.532 239.77C268.28 241.414 266.04 243.093 263.8 244.76C261.56 246.427 259.343 247.873 257.115 249.424C255.948 250.205 254.922 251.045 253.848 251.873C252.874 252.737 251.828 253.517 250.722 254.205C250.617 254.263 250.512 254.111 250.582 254.018C251.365 253.07 252.245 252.207 253.207 251.441Z" fill="#263238"/>
<path d="M240.887 241.554C242.368 239.63 250.523 232.983 252.705 231.409C256.922 228.345 261.436 225.713 266.18 223.551C266.214 223.541 266.251 223.543 266.284 223.556C266.317 223.569 266.344 223.593 266.363 223.623C266.381 223.653 266.389 223.689 266.386 223.724C266.382 223.759 266.367 223.793 266.343 223.819C262.132 226.897 257.873 229.905 253.615 232.925C251.527 234.394 242.287 241.379 241.225 241.985C240.968 242.137 240.735 241.763 240.887 241.554Z" fill="#263238"/>
<path d="M264.5 261.084C268.049 257.728 271.818 254.612 275.782 251.756C280.085 249.208 284.574 246.986 289.21 245.11C289.385 245.052 289.525 245.285 289.373 245.378C285.08 247.932 280.763 250.392 276.54 253.144C274.51 254.484 266.74 260.303 264.687 261.41C264.593 261.469 264.407 261.201 264.5 261.084Z" fill="#263238"/>
<path d="M347.088 268.803L327.138 205.442C327.138 205.442 399.728 200.778 402.085 199.612C404.442 198.446 430.318 152.704 440.585 134.934C450.852 117.165 466.672 124.44 460.757 164.586C454.818 204.918 448.285 236.26 439.243 245.588C428.23 256.875 388.097 268.535 347.088 268.803Z" fill="#37B44D"/>
<path d="M407.907 228.564C407.733 226.844 407.776 225.109 408.035 223.399C408.249 221.679 408.684 219.994 409.33 218.385C409.506 220.106 409.459 221.842 409.19 223.55C408.975 225.269 408.544 226.954 407.907 228.564Z" fill="white"/>
<path d="M367.797 264.827C367.617 263.103 367.66 261.363 367.925 259.65C368.143 257.932 368.574 256.248 369.208 254.636C369.388 256.36 369.345 258.1 369.08 259.813C368.865 261.532 368.434 263.216 367.797 264.827Z" fill="white"/>
<path d="M429.91 172.864C429.74 171.144 429.787 169.408 430.05 167.699C430.254 165.978 430.685 164.292 431.333 162.685C431.642 166.142 431.155 169.624 429.91 172.864Z" fill="white"/>
<path d="M441.53 222.186C438.068 222.492 434.582 222.009 431.333 220.775C433.058 220.596 434.799 220.639 436.513 220.904C438.233 221.12 439.918 221.551 441.53 222.186Z" fill="white"/>
<path d="M371.833 224.18C370.108 224.36 368.367 224.317 366.653 224.052C364.934 223.837 363.248 223.406 361.637 222.769C363.362 222.59 365.103 222.633 366.817 222.897C368.536 223.115 370.221 223.546 371.833 224.18Z" fill="white"/>
<path d="M420.565 253.773C421.664 252.436 422.926 251.241 424.322 250.217C425.687 249.15 427.185 248.264 428.778 247.582C426.553 250.23 423.763 252.345 420.612 253.773H420.565Z" fill="white"/>
<path d="M336.903 216.065C338.003 214.728 339.265 213.533 340.66 212.508C342.025 211.441 343.523 210.555 345.117 209.873C344.026 211.219 342.763 212.414 341.36 213.43C339.995 214.497 338.497 215.383 336.903 216.065Z" fill="white"/>
<path d="M412.048 190.075C410.955 191.421 409.693 192.62 408.292 193.643C407.233 194.447 406.109 195.16 404.932 195.776C405.293 195.217 405.69 194.61 406.098 193.934C406.577 193.514 407.078 193.106 407.58 192.768C408.949 191.684 410.45 190.779 412.048 190.075Z" fill="white"/>
<path d="M461.422 158.931C461.422 159.42 461.328 159.91 461.27 160.412C460.328 161.048 459.323 161.587 458.272 162.021C459.203 160.876 460.259 159.84 461.422 158.931Z" fill="white"/>
<path d="M385.332 243.454C386.431 242.113 387.693 240.915 389.088 239.886C390.456 238.823 391.954 237.938 393.545 237.251C392.452 238.597 391.189 239.796 389.788 240.819C388.42 241.882 386.923 242.768 385.332 243.454Z" fill="white"/>
<path d="M384.118 203.379C385.46 204.477 386.659 205.738 387.688 207.133C388.752 208.501 389.638 209.997 390.325 211.587C387.668 209.368 385.546 206.578 384.118 203.425V203.379Z" fill="white"/>
<path d="M457.537 133.162C456.196 132.07 455.001 130.813 453.978 129.419C453.105 128.289 452.347 127.074 451.715 125.793C451.929 125.781 452.143 125.781 452.357 125.793C453.281 126.683 454.131 127.646 454.9 128.673C455.968 130.05 456.854 131.559 457.537 133.162Z" fill="white"/>
<path d="M442.253 190.611C443.6 191.703 444.8 192.965 445.823 194.365C446.893 195.729 447.78 197.226 448.46 198.82C445.803 196.6 443.681 193.81 442.253 190.658V190.611Z" fill="white"/>
<path d="M424.812 161.717C422.478 165.215 420.25 168.923 418.068 172.573L417.882 172.876C417.987 172.596 418.103 172.316 418.208 172.048C418.92 170.229 419.55 168.375 420.32 166.591C420.32 166.486 420.215 166.393 420.168 166.498C419.375 168.259 418.5 169.996 417.753 171.757C417.252 172.923 416.797 174.17 416.365 175.395C414.743 178.1 413.122 180.805 411.523 183.557C409.377 187.218 407.242 190.902 405.083 194.564C404.547 195.462 404.033 196.359 403.485 197.257C403.101 198.053 402.43 198.673 401.607 198.995C400.631 199.226 399.634 199.359 398.632 199.391C397.57 199.496 396.508 199.624 395.447 199.752C390.617 200.347 385.822 201.14 380.992 201.77C380.875 201.77 380.875 201.968 380.992 201.956C385.425 201.618 389.87 201.455 394.303 201.093C396.497 200.918 398.69 200.767 400.86 200.487C401.7 200.443 402.509 200.16 403.193 199.671C403.794 199.125 404.289 198.473 404.652 197.747C409.046 190.145 413.441 182.538 417.835 174.928C420.32 170.614 422.84 166.323 425.127 161.904C425.151 161.862 425.159 161.812 425.147 161.765C425.135 161.718 425.104 161.678 425.063 161.653C425.021 161.629 424.971 161.621 424.924 161.634C424.877 161.646 424.836 161.676 424.812 161.717Z" fill="#263238"/>
<path d="M460.862 178.636C460.637 180.089 460.29 181.521 459.823 182.915C459.473 184.163 459.135 185.411 458.762 186.647C458.388 187.883 457.84 189.433 457.362 190.821C458.342 184.649 459.119 178.43 459.695 172.165C459.695 171.978 459.392 171.943 459.357 172.165C458.19 180.875 456.592 189.55 454.76 198.132C452.928 206.713 450.712 215.284 448.203 223.714C446.967 227.865 445.66 232.004 444.213 236.085C443.083 239.66 441.364 243.021 439.127 246.031C436.481 249.035 433.169 251.379 429.455 252.875C425.588 254.654 421.622 256.211 417.578 257.539C408.385 260.548 398.912 262.46 389.508 264.71C389.403 264.71 389.427 264.909 389.508 264.897C398.138 263.692 406.686 261.963 415.105 259.72C419.369 258.584 423.558 257.182 427.647 255.522C431.392 253.96 435.253 252.269 438.275 249.494C441.041 246.771 443.175 243.476 444.528 239.84C446.103 236.027 447.34 232.062 448.565 228.179C451.248 219.574 453.488 210.899 455.32 202.073C455.841 199.515 456.327 196.954 456.778 194.389C457.827 191.95 458.678 189.432 459.322 186.856C459.672 185.516 460.01 184.175 460.278 182.81C460.547 181.446 460.628 180.024 461.013 178.706C461.072 178.531 460.873 178.496 460.862 178.636Z" fill="#263238"/>
<path d="M359.712 263.696C356.422 254.589 352.945 245.553 350.063 236.318C347.076 227.206 344.572 217.943 342.562 208.567C342.562 208.532 342.574 208.498 342.596 208.47C342.618 208.442 342.648 208.421 342.683 208.412C342.717 208.403 342.753 208.405 342.786 208.418C342.819 208.432 342.847 208.455 342.865 208.486C346.283 217.417 349.06 226.64 351.93 235.758C354.8 244.877 357.343 254.263 360.248 263.451C360.353 263.801 359.852 264.046 359.712 263.696Z" fill="#263238"/>
<path d="M347.485 203.95C345.748 203.857 344.007 203.857 342.27 203.95C340.532 203.95 338.77 204.067 337.055 204.137C333.555 204.288 330.113 204.545 326.648 204.836C326.581 204.839 326.514 204.857 326.454 204.889C326.395 204.921 326.343 204.966 326.304 205.021C326.264 205.077 326.238 205.14 326.227 205.207C326.216 205.274 326.22 205.343 326.24 205.408C326.662 206.692 327.259 207.912 328.013 209.034C328.072 209.092 328.188 209.034 328.188 208.975C328.036 207.839 327.73 206.729 327.278 205.676C330.592 205.454 333.905 205.256 337.218 204.999L342.422 204.626C344.113 204.486 345.84 204.44 347.52 204.172C347.66 204.172 347.602 203.95 347.485 203.95Z" fill="#263238"/>
<path d="M269.167 190.378C273.495 192.523 293.27 193.339 299.033 200.429C302.872 205.093 302.533 209.908 304.727 223.982C306.675 236.202 296.56 233.31 293.632 227.037C289.058 217.207 285.127 206.434 285.127 206.434C281.751 206.266 278.369 206.317 275 206.585L269.167 190.378Z" fill="#F7A9A0"/>
<path d="M283.377 236.598C290.225 232.261 312.123 259.918 301.18 267.206C290.237 274.493 275.618 241.495 283.377 236.598Z" fill="#F7A9A0"/>
<path d="M272.282 242.428C279.118 238.091 301.028 265.748 290.085 273.036C279.142 280.323 264.5 247.384 272.282 242.428Z" fill="#F7A9A0"/>
<path d="M264.418 243.594C271.243 240.597 287.308 268.756 276.342 273.91C265.375 279.064 256.695 246.94 264.418 243.594Z" fill="#F7A9A0"/>
<path d="M256.333 242.778C263.508 241.927 270.485 272.592 258.853 274.26C247.222 275.927 248.248 243.746 256.333 242.778Z" fill="#F7A9A0"/>
<path d="M281.813 246.148C283.069 247.532 284.209 249.018 285.22 250.59C286.387 252.234 287.472 253.901 288.452 255.65C289.407 257.317 290.264 259.038 291.018 260.804C291.788 262.681 292.325 264.687 293.153 266.541C293.164 266.561 293.17 266.584 293.171 266.606C293.172 266.629 293.168 266.652 293.16 266.673C293.152 266.695 293.139 266.714 293.123 266.73C293.107 266.746 293.088 266.759 293.066 266.767C293.045 266.775 293.022 266.779 292.999 266.778C292.977 266.776 292.954 266.771 292.934 266.76C292.913 266.75 292.895 266.735 292.881 266.718C292.867 266.7 292.856 266.68 292.85 266.658C292.052 264.851 291.124 263.105 290.073 261.434C289.105 259.743 288.23 258.006 287.285 256.303C286.34 254.601 285.488 252.969 284.543 251.325C283.598 249.681 282.467 248.048 281.592 246.311C281.577 246.281 281.574 246.248 281.582 246.216C281.59 246.184 281.608 246.156 281.635 246.137C281.661 246.118 281.693 246.108 281.726 246.11C281.759 246.112 281.79 246.125 281.813 246.148Z" fill="#263238"/>
<path d="M270.415 245.996C271.115 248.071 273.472 256 274.265 258.052C275.058 260.105 275.933 262.157 276.832 264.186C277.73 266.214 278.5 268.418 279.667 270.412C279.677 270.448 279.674 270.486 279.66 270.52C279.645 270.554 279.62 270.582 279.587 270.599C279.555 270.617 279.517 270.623 279.481 270.616C279.444 270.61 279.411 270.591 279.387 270.564C278.29 268.581 277.053 266.739 276.003 264.734C274.953 262.728 274.125 260.664 273.32 258.565C271.996 254.476 270.924 250.31 270.112 246.089C270.053 245.833 270.333 245.821 270.415 245.996Z" fill="#263238"/>
<path d="M261.817 247.966C262.365 250.928 262.727 253.925 263.287 256.886C263.555 258.344 263.847 259.801 264.115 261.271C264.243 261.97 264.36 262.681 264.488 263.393C264.556 264.215 264.709 265.027 264.943 265.818C265.025 266.016 264.652 266.109 264.628 265.818C264.414 264.931 264.133 264.062 263.788 263.218C263.59 262.53 263.392 261.854 263.217 261.154C262.855 259.708 262.563 258.262 262.33 256.781C261.805 253.878 261.501 250.939 261.42 247.99C261.42 247.803 261.782 247.745 261.817 247.966Z" fill="#263238"/>
</svg>
