<svg width="662" height="660" viewBox="0 0 662 660" fill="none" xmlns="http://www.w3.org/2000/svg">
<path d="M184.173 508.467L164.665 561.094H187.565L229.973 532.202L184.173 508.467Z" fill="#37B44C"/>
<path opacity="0.1" d="M184.173 508.467L164.665 561.094H187.565L229.973 532.202L184.173 508.467Z" fill="black"/>
<path d="M477.827 508.467L497.335 561.094H474.435L432.027 532.202L477.827 508.467Z" fill="#37B44C"/>
<path opacity="0.1" d="M477.827 508.467L497.335 561.094H474.435L432.027 532.202L477.827 508.467Z" fill="black"/>
<path d="M496.467 497.142C587.848 405.761 587.848 257.603 496.467 166.221C405.085 74.84 256.927 74.84 165.546 166.221C74.1644 257.602 74.1644 405.761 165.546 497.142C256.927 588.523 405.085 588.523 496.467 497.142Z" fill="#37B44C"/>
<path opacity="0.1" d="M328.154 551.121C451.471 551.121 551.439 451.153 551.439 327.836C551.439 204.519 451.471 104.551 328.154 104.551C204.838 104.551 104.87 204.519 104.87 327.836C104.87 451.153 204.838 551.121 328.154 551.121Z" fill="black"/>
<path d="M478.911 478.601C560.601 396.911 560.601 264.465 478.911 182.775C397.221 101.085 264.775 101.085 183.084 182.775C101.394 264.465 101.394 396.911 183.084 478.601C264.775 560.292 397.221 560.292 478.911 478.601Z" fill="white"/>
<path d="M535.407 286.249C440.153 343.965 283.599 438.644 196.143 490.546C171.4 469.687 151.831 443.376 138.974 413.678L428.347 145.468C455.383 159.702 478.976 179.68 497.471 204C515.965 228.32 528.914 256.393 535.407 286.249Z" fill="#EBEBEB"/>
<path d="M540.003 337.945C539.243 361.22 534.567 384.2 526.173 405.921L265.336 529.301C253.962 525.544 242.936 520.806 232.381 515.142C311.137 469.602 455.16 386.742 540.003 337.945Z" fill="#EBEBEB"/>
<path d="M333.011 136.686H328.975V168.396H333.011V136.686Z" fill="#C7C7C7"/>
<path d="M235.761 161.64L232.255 163.665L248.11 191.127L251.617 189.102L235.761 161.64Z" fill="#C7C7C7"/>
<path d="M163.995 231.908L161.977 235.403L189.439 251.258L191.457 247.763L163.995 231.908Z" fill="#C7C7C7"/>
<path d="M168.714 328.657H137.004V332.692H168.714V328.657Z" fill="#C7C7C7"/>
<path d="M189.416 410.087L161.955 425.942L163.972 429.437L191.434 413.581L189.416 410.087Z" fill="#C7C7C7"/>
<path d="M248.1 470.243L232.26 497.714L235.768 499.736L251.608 472.266L248.1 470.243Z" fill="#C7C7C7"/>
<path d="M333.011 492.967H328.975V524.678H333.011V492.967Z" fill="#C7C7C7"/>
<path d="M413.908 470.207L410.401 472.232L426.256 499.694L429.763 497.669L413.908 470.207Z" fill="#C7C7C7"/>
<path d="M472.546 410.046L470.528 413.541L497.99 429.396L500.008 425.901L472.546 410.046Z" fill="#C7C7C7"/>
<path d="M524.996 328.657H493.286V332.692H524.996V328.657Z" fill="#C7C7C7"/>
<path d="M497.997 231.968L470.535 247.823L472.553 251.318L500.015 235.463L497.997 231.968Z" fill="#C7C7C7"/>
<path d="M426.257 161.683L410.416 189.153L413.924 191.176L429.765 163.706L426.257 161.683Z" fill="#C7C7C7"/>
<path d="M523.423 333.377L320.535 339.04L320.781 319.204L523.478 327.987L523.423 333.377Z" fill="#37B44C"/>
<path d="M332.395 188.013L341.178 342.405L321.328 342.145L327.019 187.944L332.395 188.013Z" fill="#263238"/>
<path d="M331 337.453C334.74 337.453 337.772 334.421 337.772 330.681C337.772 326.942 334.74 323.91 331 323.91C327.26 323.91 324.228 326.942 324.228 330.681C324.228 334.421 327.26 337.453 331 337.453Z" fill="#37B44C"/>
</svg>
